<svg width="33" height="32" viewBox="0 0 33 32" fill="none" xmlns="http://www.w3.org/2000/svg">
<rect x="1.09583" y="0.5" width="31.0667" height="31" rx="6.5" fill="white" stroke="#F8F8F8"/>
<path d="M21.7904 11.3565L21.7899 11.3559C21.4502 11.0262 21.0493 10.7639 20.609 10.5835L20.6081 10.5831C20.1511 10.3952 19.6607 10.2989 19.1655 10.3L19.1639 10.3C18.4671 10.3 17.7889 10.4889 17.2007 10.8442L17.2007 10.8442C17.06 10.9292 16.9269 11.0222 16.8011 11.1232L16.3628 11.4753L15.9244 11.1232C15.7987 11.0222 15.6655 10.9292 15.5248 10.8442L15.5248 10.8442C14.9366 10.4889 14.2585 10.3 13.5616 10.3C13.0586 10.3 12.5746 10.3951 12.1175 10.5831L12.1167 10.5834C11.6746 10.7647 11.2772 11.0247 10.9355 11.3562L10.9345 11.3571L10.9345 11.3571C10.5961 11.684 10.3262 12.0731 10.1397 12.5021L21.7904 11.3565ZM21.7904 11.3565C22.1286 11.684 22.3987 12.0732 22.5859 12.5022C22.7799 12.9488 22.8783 13.4204 22.8769 13.9064V13.9084C22.8769 14.3623 22.7833 14.8508 22.5849 15.3647L22.5842 15.3663M21.7904 11.3565L22.5842 15.3663M13 19.1126L13.0001 19.1127C13.7508 19.7991 14.5006 20.3818 15.072 20.7983C15.3572 21.0062 15.5965 21.1717 15.7675 21.287C15.853 21.3446 15.9212 21.3895 15.9692 21.4208C16.0123 21.4488 16.0358 21.4637 16.0411 21.467C16.042 21.4676 16.0424 21.4678 16.0422 21.4677L16.0533 21.4745L16.0532 21.4746L16.3619 21.6706L16.6707 21.4746L16.6708 21.4745C16.7222 21.4419 18.2162 20.4898 19.7239 19.1126H13ZM13 19.1126C12.0935 18.2839 11.38 17.4813 10.8707 16.7294M13 19.1126L10.8707 16.7294M22.5842 15.3663C22.4199 15.7949 22.175 16.2536 21.853 16.7297M22.5842 15.3663L21.853 16.7297M10.8707 16.7294C10.5496 16.2548 10.3057 15.7955 10.139 15.3647L10.8707 16.7294ZM21.853 16.7297C21.3437 17.4815 20.6304 18.2839 19.7241 19.1124L21.853 16.7297ZM9.84694 13.9084C9.84694 13.421 9.94562 12.9487 10.1397 12.5022L10.1389 15.3643C9.94049 14.8506 9.84694 14.3622 9.84694 13.9084Z" stroke="#ECECEC" stroke-width="1.4"/>
</svg>
